<svg width="180" height="180" fill="none" xmlns="http://www.w3.org/2000/svg">

  <!-- <style>
    path { fill: #000; }
    @media (prefers-color-scheme: dark) {
      path { fill: #fff; }
    }
  </style> -->

  <g clip-path="url(#clip0)" clip-rule="evenodd" stroke="#fff" stroke-width="5"><path d="M-249.15 818.76c-28.112-2.712-64.013 36.976-82.142 53.649-35.856 32.965-69.39 67.629-103.365 101.896-33.975 34.265-67.878 68.645-104.637 100.875-23.862 20.94-50.851 45.64-83.187 58.21-68.91 26.79-48.618-77.43-47.318-104.83 3.292-69.686 12.942-149.033-14.679-217.438-16.489-40.836-49.12-59.734-99.774-56.401-16.471 1.06-35.913 7.138-51.021-1.179-16.137-8.882-24.204-26.4-29.35-40.784-18.742-52.46-15.719-110.311-13.385-163.593 2.454-57.461 9.199-115.033 14.637-171.788 2.307-24.065-5.72-50.245-11.993-74.011-8.223-31.157-17.866-62.097-27.081-93.102-20.208-68.204-41.642-138.546-41.489-208.545.094-43.837 10.616-90.703 51.066-120.705 20.31-15.064 48.867-21.15 74.426-28.472 30.88-8.87 62-17.242 92.49-26.924 98.199-31.193 195.995-79.982 210.066-173.689 2.126-14.176 1.26-28.394 2.256-42.616.644-9.056 4.114-16.825 15.981-19.024 29.768-5.537 72.762 25.568 94.617 38.747 47.839 28.852 93.119 60.52 139.816 90.614 30.881 19.909 72.474 53.179 111.994 57.45 35.212 3.804 64.536-32.041 83.991-51.205 18.217-17.96 44.52-51.172 77.795-50.003 16.134.568 28.55 10.561 37.952 20.638 16.439 17.66 27.325 37.197 46.465 53.52 31.401 26.769 75.875 50.964 121.669 52.352 31.731.96 53.845-11.699 75.45-28.457 9.084-7.043 15.593-12.846 29.1-11.911 21.448 1.474 43.387 10.606 62.644 18.247 68.917 27.34 134.637 62.944 195.485 101.32 30.408 19.176 60.59 39.625 85.773 63.533 16.54 15.662 36.004 36.5 33.857 57.646-2.456 24.484-15.841 49.309-26.293 72.299-19.531 42.938-41.36 85.102-63.622 127.047-51.502 97.001-106.258 192.714-164.267 287.14-40.918 66.506-82.034 134.49-133.702 195.693-10.137 11.929-21.672 22.992-34.448 33.039-13.437 10.756-20.404 25.077-25.998 39.746-34.721 91.044-25.562 195.524-22.796 290.726.696 24.16 1.409 48.32 1.172 72.46-.203 20.75 2.662 45.91-7.358 65.09-19.727 37.8-74.418-2.47-96.65-19.4-78.277-59.61-142.22-132.81-208.124-201.317-31.39-32.58-62.667-65.372-96.158-96.562-17.41-16.238-45.221-47.604-69.865-49.981z"/><path d="M-252.115 800.625c-31.312 12.723-56.055 38.076-79.034 58.875-33.079 29.931-64.608 61.063-96.896 91.602-30.533 28.877-61.383 57.788-95.392 83.958-20.739 15.95-45.645 36.09-74.517 41.73-62.581 12.25-43.462-85.523-42.607-110.049 2.147-60.972 8.136-129.741-18.22-188.992-16.46-36.998-48.136-54.698-94.864-51.848-16.167.984-30.215 4.27-45.451-3.203-17.633-8.643-27.482-25.442-34.103-40.6-20.744-47.485-20.778-101.157-20.354-150.331.439-50.801 2.45-103.575 10.713-151.956 3.298-19.348-2.078-42.538-5.992-62.406-6.034-30.571-13.483-60.979-20.187-91.468-13.64-61.965-26.403-125.416-22.296-188.043 2.965-45.215 16.116-91.348 52.488-125.562 36.881-34.673 89.835-46.385 140.681-62.563 87.901-27.932 195.267-66.797 221.514-149.188 3.984-12.493 3.748-24.908 5.691-37.592.994-6.523 2.808-13.88 11.03-16.414 21.345-6.578 56.415 20.833 71.304 30.368 41.142 26.345 79.889 55.211 120.091 82.526 31.921 21.694 67.101 48.662 106.407 59.758 47.697 13.465 87.883-39.211 124.055-55.525 62.725-28.28 90 39.959 115.062 74.767 28.771 39.971 84.939 76.217 138.456 48.344 20.464-10.664 33.462-25.007 59.084-28.116 40.071-4.862 84.187 6.282 122.209 17.304 57.155 16.592 113.052 39.382 163.363 67.786 36.019 20.348 92.347 53.76 83.877 93.563-5.676 26.798-19.244 53.258-31.443 78.681-18.258 38.068-38.464 75.439-59.281 112.537-47.945 85.65-99.789 169.911-155.75 252.001-38.195 56.011-186.571 208.052-192.521 220.015-17.728 35.672-19.492 78.075-21.157 116.519-2.218 51.138.176 102.482 2.025 153.73.863 24.393 2.442 48.977 1.628 73.337-.581 17.33-1.867 40.04-15.594 53.9-26.783 27.05-78.015-11.22-99.722-27.1-66.548-48.65-122.515-107.355-180.186-162.921-28.316-27.27-56.546-54.904-87.552-80.191-12.521-10.2-37.22-35.098-56.559-27.233z"/><path d="M-265.185 777.365c-63.808 36.925-114.004 91.689-168.826 137.799-27.524 23.143-55.744 46.378-87.682 65.515-16.608 9.956-37.593 22.361-59.357 22.421-58.222.14-41.503-88.039-41.019-114.886.921-51.905 3.536-110.385-21.186-160.039-15.114-30.338-43.21-47.351-82.527-45.909-17.444.638-32.432 2.852-48.721-4.889-16.502-7.843-27.299-21.817-35.057-35.65-22.313-39.751-26.008-86.74-28.015-129.176a833.3 833.3 0 016.397-148.71c5.725-43.119-5.532-87.732-11.561-130.999-7.98-57.317-14.137-115.476-6.597-172.553 5.963-45.076 21.737-89.528 55.384-125.198 34.258-36.239 82.006-55.303 133.109-71.683 77.253-24.761 180.473-54.923 215.671-122.719 5.128-9.859 6.539-19.386 8.315-29.907.86-5.111 1.633-11.744 8.436-13.639 16.381-4.558 44.667 21.206 54.683 28.609 31.976 23.63 62.249 48.806 93.724 72.895 29.384 22.489 59.914 46.835 95.417 62.536 56.545 24.989 96.864-32.72 152.402-25.417 34.48 4.538 56.559 34.171 71.56 57.387 18.444 28.582 28.492 68.08 65.666 85.19 27.689 12.745 45.933-1.064 68.892-10.803 38.9-16.505 89.021-12.867 131.492-6.482 57.392 8.622 114.81 25.57 165.932 49.745 23.175 10.955 47.125 23.929 64.244 41.21 16.046 16.191 19.157 30.304 13.641 49.236-16.906 57.955-53.493 114.512-86.51 168.401-41.488 67.707-86.45 134.076-135.946 197.873-33.754 43.502-69.302 87.883-113.589 124.595-11.546 9.568-24.026 19.301-38.629 25.679-10.978 4.828-19.807 6.459-26.733 15.758-20.518 27.564-20.014 68.818-21.34 100.424-2.132 50.535.594 101.314 2.556 151.949 1.174 29.55 8.555 85.735-24.695 105.901-28.711 17.401-71.796-11.397-94.07-26.136-56.33-37.282-104.483-82.802-154.476-125.568-22.912-19.6-45.946-39.891-71.91-56.784-6.619-4.315-15.289-11.033-23.67-12.878-9.606-2.09-17.543 2.371-25.405 6.902z"/><path d="M-250.963 775.067c-56.59 34.358-104.604 77.774-158.107 115.386-23.99 16.864-49.08 33.808-77.468 45.644-15.267 6.367-34.329 12.842-52.112 8.879-51.04-11.371-39.033-84.069-39.093-113.933-.037-44.369.549-95.277-23.411-136.91-15.692-27.272-41.681-39.515-76.91-38.252-37.789 1.358-63.706-12.757-81.898-40.789-22.789-35.143-29.288-77.27-33.042-115.796-4.48-46.412-3.867-92.895 1.834-138.883 5.547-44.724.737-89.077-.756-134.209-1.972-59.838.247-121.168 22.292-177.924 19.196-49.415 54.865-92.21 106.355-121.807 53.743-30.918 118.695-42.376 177.09-66.001 36.423-14.735 84.735-35.531 101.597-68.202 5.624-10.896 1.647-32.182 22.805-20.905 12.1 6.446 22.198 17.251 31.745 25.944 15.429 14.048 30.358 28.459 45.537 42.692 32.357 30.335 65.269 62.646 104.753 86.91 49.71 30.57 93.702-3.042 146.223 6.862C-5.265-60.9 15.86-42.373 32.013-23.394c10.463 12.28 19.271 25.453 27.381 38.813 8.473 13.953 14.379 30.051 25.88 42.633 16.365 17.927 38.355 13.063 61.906 12.372a615.512 615.512 0 01123.909 8.918c50.136 8.75 101.218 22.594 145.29 45.385 17.158 8.867 35.201 19.73 45.846 34.241 10.645 14.51 8.444 28.193 3.306 43.081-15.199 44.164-44.533 86.814-72.349 127.363-34.819 50.752-72.992 100.101-115.454 146.625-29.313 32.114-60.712 64.134-98.649 89.655-11.04 7.422-22.76 14.362-35.598 19.636-8.803 3.622-19.826 4.932-26.756 10.764-21.636 18.255-19.854 59.44-21.094 83.269-2.477 47.557 3.648 95.224 1.53 142.755-1.154 25.942-1.6 66.706-30.307 82.962-26.987 15.288-65.056-4.831-88.269-17.916-45.642-25.717-85.355-58.1-127.206-87.752-17.222-12.192-35.189-25.463-55.369-34.266-17.983-7.83-32.465 1.119-46.973 9.923z"/><path d="M-249.125 765.405c-49.462 26.904-94.376 60.814-144.616 87.871-29.42 15.836-78.956 43.221-116.359 24.939-41.102-20.065-36.745-75.192-36.994-107.335-.297-38.257-1.43-83.263-24.834-118.326-7.398-11.089-17.675-20.934-31.994-26.107-15.324-5.538-29.515-2.589-45.31-3.604-33.134-2.131-58.02-20.941-74.078-44.141-22.705-32.789-31.083-71.783-35.987-108.312-5.512-41.381-6.106-82.946-1.774-124.1 4.112-39.334 6.954-78.374 9.678-117.887 3.531-51.678 11.418-103.651 33.128-151.945 21.397-47.572 56.734-89.23 105.633-119.832 47.716-29.853 104.155-47.562 161.313-62.296 32.441-8.36 81.146-23.095 99.702-48.937 8.258-11.492 8.976-23.509 25.967-8.704 21.396 18.643 37.668 42.508 55.472 63.401 25.692 30.14 51.872 61.02 83.376 87.315 20.117 16.793 40.409 25.413 68.457 27.21 21.368 1.357 42.792-.06 63.984 3.87 49.743 9.216 80.894 45.042 110.055 76.88 18.755 20.479 32.781 38.871 61.136 51.29 33.513 14.686 70.724 23.172 105.936 34.272 38.667 12.192 78.794 25.82 111.776 47.273 29.365 19.097 41.301 39.937 30.036 68.206-17.558 44.093-54.081 85.626-87.758 122.955-34.266 37.996-72.212 74.911-117.064 104.746-24.22 16.107-51.754 25.997-77.43 39.883-32.24 17.472-25.462 64.997-25.673 92.815-.35 46.18 16.944 193.331-84.52 169.732-42.352-9.85-79.76-35.659-116.021-55.428-15.049-8.195-32.946-19.666-50.802-22.97-19.448-3.599-39.546 9.179-54.435 17.266z"/><path d="M-243.522 749.142c-44.374 19.9-86.905 44.777-134.295 60.917-30.692 10.476-71.225 19.721-100.538-.707-33.08-23.056-36.925-66.961-38.213-99.068-1.324-33.079-1.284-72.406-25.178-101.731-7.612-9.331-18.322-17.468-31.857-20.141-12.983-2.57-26.446-.342-39.674-2.856-29.705-5.637-52.904-23.004-68.887-43.999-47.284-62.104-50.585-147.807-45.095-216.464 2.753-34.364 9.908-69.297 15.96-103.554 7.853-44.453 19.563-88.587 41.226-129.56C-624.027 4.861-536.009-47.793-429.818-80.083c33.426-10.16 69.165-16.918 97.052-35.3 14.397-9.474 23.721-6.153 34.754 6.117 17.241 19.182 29.627 41.714 43.539 62.48 19.785 29.537 39.847 59.691 64.405 86.521 16.929 18.494 33.663 32.095 61.191 38.476 19.627 4.552 39.948 5.987 59.8 9.531 37.712 6.74 74.426 20.542 104.172 41.44 23.574 16.599 44.601 35.653 64.515 55.165 25.929 25.368 52.658 47.305 84.399 67.78 42.013 27.137 120.511 67.221 93.527 118.505-29.772 56.561-95.934 105.737-158.463 137.669-20.994 10.724-46.225 18.725-62.486 34.397-24.309 23.465-26.158 49.563-29.129 80.077-4.459 45.681-2.33 146.273-85.937 138.968-33.125-2.896-63.228-17.764-94.484-26.573-35.003-9.911-60.314.373-90.559 13.971z"/><path d="M-237.979 731.56c-57.073 18.361-152.291 62.822-209.014 16.048-29.978-24.708-38.241-63.92-42.239-96.52-3.247-26.237-2.329-57.394-25.06-79.253-16.712-16.067-43.75-12.392-65.913-20.129-27.475-9.599-48.953-27.46-64.351-48.305-43.036-58.251-50.438-133.983-47.153-198.531 3.418-67.038 26.111-139.004 61.875-198.822 44.604-74.583 120.077-126.24 212.316-158.405 17.027-5.935 34.41-11.135 51.603-16.747 11.534-3.773 22.944-9.939 34.947-12.62 20.013-4.461 35.09 4.674 46.5 18.039 16.429 19.226 27.22 41.9 38.869 63.108 15.944 29.004 31.491 58.578 50.859 86.013 13.035 18.438 27.129 37.782 52.088 46.417 17.022 5.892 35.406 8.605 53.48 10.269 38.758 3.563 69.906 8.37 103.885 26.74 55.78 30.213 104.376 72.943 143.967 116.906 31.071 34.502 79.246 88.996 51.846 131.974-24.543 38.565-75.918 57.41-118.212 80.197-20.56 11.08-39.613 23.931-55.033 39.731-19.439 19.92-28.73 39.576-34.128 64.946-9.089 42.7-16.857 107.68-81.4 114.685-23.819 2.588-47.697-2.649-71.584-2.435-31.58.242-59.359 7.431-88.148 16.694z"/><path d="M-233.467 706.965c-61.535 10.979-139.177 25.722-188.238-20.629-23.767-22.451-35.363-51.841-43.411-79.967-5.769-20.144-4.953-51.128-27.473-65.383-16.574-10.473-40.525-14.096-58.428-23.862-24.615-13.422-44.138-31.971-58.777-52.903-38.148-54.534-48.275-121.592-47.07-181.698 2.632-130.601 98.434-254.143 241.248-309.84 42.571-16.61 88.352-38.968 126.374-1.41 41.476 41.001 57.109 98.067 84.812 144.816 10.576 17.861 23.17 40.534 44.409 52.037 12.767 6.92 29.448 8.98 44.094 10.707 37.298 4.42 70.647 10.335 104.278 26.145 51.973 24.421 98.64 59.729 135.91 98.173 32.499 33.528 69.938 80.447 39.975 121.396-23.019 31.393-66.893 48.365-100.27 71.203C26.796 521.161.118 554.525-15.1 592.576c-14.774 37.018-26.354 78.084-74.89 93.504-16.65 5.29-38.034 10.416-55.956 11.227-29.54 1.248-58.811 4.478-87.522 9.658z"/><path d="M-230.271 679.358c-61.205 1.794-124.29-3.654-168.245-44.933-20.506-19.264-34.128-42.381-46.242-65.592-8.914-17.077-16.128-34.512-32.177-48.209-14.858-12.688-32.556-22.976-47.871-35.323-20.302-16.298-37.408-35.078-50.661-55.619-33.148-51.48-45.069-111.255-45.656-167.356-.296-27.159 1.07-56.45 11.9-82.31 10.452-24.975 25.447-49.202 42.328-71.436 35.856-47.27 85.345-86.39 145.552-112.307 41.297-17.77 80.512-25.684 117.378 6.393 41.555 36.161 61.253 88.3 86.179 132.145 17.095 30.073 33.457 63.496 75.246 72.986 33.252 7.555 64.87 14.153 95.612 28.15 45.332 20.79 85.485 48.699 118.078 82.072 29.682 30.507 53.731 67.747 32.505 104.996-16.841 29.509-50.032 50.384-74.75 75.162-27.6 27.609-44.47 59.292-58.86 92.994-12.97 30.284-31.035 58.212-65.143 75.204-6.971 3.479-14.544 7.107-22.198 9.561-9.766 3.13-19.01 1.883-29.579 1.63-27.89-.696-55.695.984-83.396 1.792z"/><path d="M-232.15 648.377c-57.319-6.43-110.42-23.18-152.035-58.642-17.803-15.161-31.975-32.555-48.044-48.885-12.956-13.15-24.976-25.555-35.269-40.214-24.366-34.768-57.443-64.356-78.588-100.827-28.275-48.691-41.204-102.514-43.282-154.84-1.018-25.551.354-51.703 6.917-76.792 5.636-21.548 19.813-41.304 34.117-59.514 28.021-35.694 66.124-69.258 112.116-89.645 101.397-44.947 160.341 69.644 195.64 128.964 16.239 27.282 34.104 68.271 70.273 82.408 25.838 10.104 52.419 17.347 77.221 29.509 66.609 32.668 142.746 93.056 124.93 161.562-7.617 29.314-29.144 54.569-44.557 81.102-15.873 27.32-26.084 56.138-37.023 85.092-10.217 27.061-23.012 48.162-53.155 63.279-14.395 7.226-30.521 4.842-47.202 3.941-27.399-1.488-54.905-3.469-82.059-6.498z"/><path d="M-236.715 619.878c-85.499-19.872-175.898-70.884-220.076-136.987-51.969-77.757-93.992-160.563-99.707-247.81-2.651-40.449-1.546-84.357 23.941-119.717 19.387-26.912 47.41-57.62 83.715-69.857 88.801-29.944 147.835 62.401 182.241 115.09 18.522 28.368 35.785 63.843 64.694 86.724 16.761 13.273 39.868 21.51 58.611 32.749 56.8 34.061 100.247 85.106 103.07 143.544 1.301 27.019-6.303 53.342-12.86 79.369-6.711 26.643-11.629 53.806-19.903 80.122-6.608 21.007-16.688 45.534-45.5 50.624-36.308 6.422-83.31-5.739-118.226-13.851z"/></g><defs><clipPath id="clip0"><path fill="#fff" d="M0 0h180v180H0z"/></clipPath></defs></svg>
